<svg id="XMLID_1156_" xmlns="http://www.w3.org/2000/svg" width="192" height="192" viewBox="0 0 192 192">
  <g id="XMLID_416_">
    <path id="XMLID_419_" d="M183,133.251V26.438A11.451,11.451,0,0,0,171.563,15H144.375V11.25a11.25,11.25,0,0,0-22.5,0V15H61.125V11.25a11.25,11.25,0,0,0-22.5,0V15H11.438A11.451,11.451,0,0,0,0,26.438V165.563A11.451,11.451,0,0,0,11.438,177H62.55a3.75,3.75,0,0,0,0-7.5H11.438A3.942,3.942,0,0,1,7.5,165.563V26.438A3.942,3.942,0,0,1,11.438,22.5H38.625v3.75a11.25,11.25,0,0,0,22.5,0V22.5h60.75v3.75a11.25,11.25,0,0,0,22.5,0V22.5h27.188a3.942,3.942,0,0,1,3.938,3.938V45H33.75a3.75,3.75,0,0,0,0,7.5H175.5v74.414a35.055,35.055,0,0,0-10.5-4.437V66.75A3.75,3.75,0,0,0,161.25,63H21.75A3.75,3.75,0,0,0,18,66.75v88.5A3.75,3.75,0,0,0,21.75,159h99.824a34.986,34.986,0,0,0,2.313,10.5H92.55a3.75,3.75,0,0,0,0,7.5h35.364A35.236,35.236,0,1,0,183,133.251ZM53.625,26.25a3.75,3.75,0,0,1-7.5,0v-15a3.75,3.75,0,0,1,7.5,0Zm83.25,0a3.75,3.75,0,0,1-7.5,0v-15a3.75,3.75,0,0,1,7.5,0ZM156.75,121.5a35.4,35.4,0,0,0-5.134.375H137.1v-21.75h20.4v21.384C157.251,121.5,157,121.5,156.75,121.5Zm-34.859,30H109.2V129.375h20.4v4.918A35.116,35.116,0,0,0,121.891,151.5ZM25.5,100.125H45.9v21.75H25.5Zm27.9,0H73.8v21.75H53.4Zm55.8,0h20.4v21.75H109.2Zm-7.5,21.75H81.3v-21.75h20.4Zm7.5-29.25V70.5h20.4V92.625Zm-7.5,0H81.3V70.5h20.4Zm-27.9,0H53.4V70.5H73.8Zm0,36.75V151.5H53.4V129.375Zm7.5,0h20.4V151.5H81.3Zm76.2-36.75H137.1V70.5h20.4ZM45.9,70.5V92.625H25.5V70.5ZM25.5,129.375H45.9V151.5H25.5ZM156.75,184.5a27.75,27.75,0,1,1,27.75-27.75A27.781,27.781,0,0,1,156.75,184.5Z"/>
    <path id="XMLID_1115_" d="M408.327,391.931l-11.6,11.6-5.161-5.161a3.75,3.75,0,1,0-5.3,5.3l7.812,7.812a3.75,3.75,0,0,0,5.3,0l14.25-14.25a3.75,3.75,0,1,0-5.3-5.3Z" transform="translate(-240.729 -244.271)"/>
    <path id="XMLID_1116_" d="M200.55,452a3.751,3.751,0,1,0,2.651,1.1A3.778,3.778,0,0,0,200.55,452Z" transform="translate(-123 -282.5)"/>
    <path id="XMLID_1120_" d="M46.4,126.4a3.748,3.748,0,1,0-2.651,1.1A3.777,3.777,0,0,0,46.4,126.4Z" transform="translate(-25 -75)"/>
  </g>
</svg>
